# xmcd
#
# Track frame offsets: 
#        150
#        12915
#        26635
#        39493
#        55507
#        71159
#        84016
#        96924
#        112427
#        126203
#        140363
#        153928
#        167892
#        184006
#        198614
#        214287
#        229833
#        245511
#
# Disc length: 3476 seconds
#
# Revision: 0
# Processed by: cddbd v1.5.2PL0 Copyright (c) Steve Scherf et al.
# Submitted via: ExactAudioCopy v0.95b4
#
DISCID=fd0d9212
DTITLE=Jimmie Rodgers - The Best Of Jimmie Rodgers
DYEAR=2000
DGENRE=Country
TTITLE0=Waitin' For A Train
TTITLE1=Pistol Packin' Papa
TTITLE2=Travellin' Blues
TTITLE3=Gamblin' Bar Room Blues
TTITLE4=Blue Yodel No 1
TTITLE5=Dear Old Sunny South By The Sea
TTITLE6=Daddy And Home
TTITLE7=When The Cactus Is In Bloom
TTITLE8=You And My Old Guitar
TTITLE9=Praire Lullaby
TTITLE10=My Litlle Lady
TTITLE11=Old Pal Of My Heart
TTITLE12=Roll Along Kentucky Moon
TTITLE13=The Soldiers Sweetheart
TTITLE14=Long Tall Mama Blues
TTITLE15=Away Out On The Mountains
TTITLE16=Mississippi Moon
TTITLE17=Last Blue Yodel
EXTD=
EXTT0=
EXTT1=
EXTT2=
EXTT3=
EXTT4=
EXTT5=
EXTT6=
EXTT7=
EXTT8=
EXTT9=
EXTT10=
EXTT11=
EXTT12=
EXTT13=
EXTT14=
EXTT15=
EXTT16=
EXTT17=
PLAYORDER=
